<mxfile host="app.diagrams.net" modified="2021-11-11T10:42:28.561Z" agent="5.0 (Windows NT 10.0; Win64; x64) AppleWebKit/537.36 (KHTML, like Gecko) Chrome/95.0.4638.69 Safari/537.36 Edg/95.0.1020.44" etag="F9y9_x6UxI67pROf-B5Z" version="15.7.3" type="github">
  <diagram id="a9k5TePNvCTWr5P8WWCj" name="Page-1">
    <mxGraphModel dx="2889" dy="1154" grid="1" gridSize="10" guides="1" tooltips="1" connect="1" arrows="1" fold="1" page="1" pageScale="1" pageWidth="827" pageHeight="1169" math="0" shadow="0">
      <root>
        <mxCell id="0" />
        <mxCell id="1" parent="0" />
        <mxCell id="itukyr4UZlFDZJ1fapLR-3" value="" style="edgeStyle=orthogonalEdgeStyle;rounded=0;orthogonalLoop=1;jettySize=auto;html=1;" edge="1" parent="1" source="itukyr4UZlFDZJ1fapLR-1" target="itukyr4UZlFDZJ1fapLR-2">
          <mxGeometry relative="1" as="geometry" />
        </mxCell>
        <mxCell id="itukyr4UZlFDZJ1fapLR-1" value="黄金流程说明" style="rounded=0;whiteSpace=wrap;html=1;" vertex="1" parent="1">
          <mxGeometry x="-360" y="80" width="120" height="60" as="geometry" />
        </mxCell>
        <mxCell id="itukyr4UZlFDZJ1fapLR-5" value="" style="edgeStyle=orthogonalEdgeStyle;rounded=0;orthogonalLoop=1;jettySize=auto;html=1;" edge="1" parent="1" source="itukyr4UZlFDZJ1fapLR-2" target="itukyr4UZlFDZJ1fapLR-4">
          <mxGeometry relative="1" as="geometry" />
        </mxCell>
        <mxCell id="itukyr4UZlFDZJ1fapLR-2" value="流量能力" style="rounded=0;whiteSpace=wrap;html=1;" vertex="1" parent="1">
          <mxGeometry x="-160" y="80" width="120" height="60" as="geometry" />
        </mxCell>
        <mxCell id="itukyr4UZlFDZJ1fapLR-7" value="" style="edgeStyle=orthogonalEdgeStyle;rounded=0;orthogonalLoop=1;jettySize=auto;html=1;" edge="1" parent="1" source="itukyr4UZlFDZJ1fapLR-4" target="itukyr4UZlFDZJ1fapLR-6">
          <mxGeometry relative="1" as="geometry" />
        </mxCell>
        <mxCell id="itukyr4UZlFDZJ1fapLR-4" value="搭售能力" style="rounded=0;whiteSpace=wrap;html=1;" vertex="1" parent="1">
          <mxGeometry x="40" y="80" width="120" height="60" as="geometry" />
        </mxCell>
        <mxCell id="itukyr4UZlFDZJ1fapLR-9" value="" style="edgeStyle=orthogonalEdgeStyle;rounded=0;orthogonalLoop=1;jettySize=auto;html=1;" edge="1" parent="1" source="itukyr4UZlFDZJ1fapLR-6" target="itukyr4UZlFDZJ1fapLR-8">
          <mxGeometry relative="1" as="geometry" />
        </mxCell>
        <mxCell id="itukyr4UZlFDZJ1fapLR-6" value="复购能力" style="rounded=0;whiteSpace=wrap;html=1;" vertex="1" parent="1">
          <mxGeometry x="240" y="80" width="120" height="60" as="geometry" />
        </mxCell>
        <mxCell id="itukyr4UZlFDZJ1fapLR-11" value="" style="edgeStyle=orthogonalEdgeStyle;rounded=0;orthogonalLoop=1;jettySize=auto;html=1;" edge="1" parent="1" source="itukyr4UZlFDZJ1fapLR-8" target="itukyr4UZlFDZJ1fapLR-10">
          <mxGeometry relative="1" as="geometry" />
        </mxCell>
        <mxCell id="itukyr4UZlFDZJ1fapLR-8" value="拉新能力" style="rounded=0;whiteSpace=wrap;html=1;" vertex="1" parent="1">
          <mxGeometry x="440" y="80" width="120" height="60" as="geometry" />
        </mxCell>
        <mxCell id="itukyr4UZlFDZJ1fapLR-10" value="转化能力" style="rounded=0;whiteSpace=wrap;html=1;" vertex="1" parent="1">
          <mxGeometry x="640" y="80" width="120" height="60" as="geometry" />
        </mxCell>
      </root>
    </mxGraphModel>
  </diagram>
</mxfile>
